#!OML:ASF F:\VICON\USERDATA\INSTALL\Justin_Nancy\Justin_Nancy.ASF
:FULLY-SPECIFIED
:DEGREES
152
root 11.4218 17.0368 27.2657 9.31805 43.8751 8.33781
lowerback 11.3549 -1.2432 -8.27474
upperback -0.418948 -2.68689 1.08199
thorax -6.40492 -1.0191 6.26988
lowerneck -19.4271 -3.98906 -7.05607
upperneck 13.3043 -4.53311 5.92119
head 7.57402 -1.96085 2.55416
rclavicle -1.63003e-014 3.18055e-015
rhumerus -57.6699 10.1741 -94.9862
rradius 119.672
rwrist -30.099
rhand -0.473648 23.1557
rfingers 7.12502
rthumb 25.1366 -5.20941
lclavicle -1.63003e-014 3.18055e-015
lhumerus -34.9797 -15.4871 94.0343
lradius 122.606
lwrist 36.2469
lhand -12.6197 11.4055
lfingers 7.12502
lthumb 13.4597 40.9506
rfemur -36.672 -14.0009 12.7465
rtibia 83.1117
rfoot -5.17894 -2.32561
rtoes -18.0052
lfemur -0.363638 -4.59141 -31.5003
ltibia 36.4301
lfoot -13.4893 -1.24803
ltoes -13.498
153
root 11.6604 17.1304 27.6039 9.44941 43.4005 8.30272
lowerback 10.8124 -1.30259 -8.44487
upperback -0.409863 -2.73053 1.22773
thorax -6.0666 -1.05158 6.50249
lowerneck -19.6823 -3.90238 -7.23198
upperneck 13.5568 -4.35265 5.88803
head 7.69136 -1.88331 2.59342
rclavicle 7.04692e-014 -1.74931e-014
rhumerus -58.2304 10.4052 -95.0795
rradius 119.874
rwrist -30.1975
rhand -0.402809 23.242
rfingers 7.12502
rthumb 25.2045 -5.11358
lclavicle 7.04692e-014 -1.74931e-014
lhumerus -34.6118 -15.4985 94.2662
lradius 122.675
lwrist 36.0281
lhand -12.4896 11.0821
lfingers 7.12502
lthumb 13.5852 40.6189
rfemur -37.2087 -12.8725 13.3031
rtibia 79.762
rfoot -5.8724 -2.79972
rtoes -17.6076
lfemur 1.16134 -4.48206 -31.3319
ltibia 35.0828
lfoot -10.2848 -1.70496
ltoes -13.5747
154
root 11.895 17.2226 27.9523 9.5126 42.9147 8.11908
lowerback 10.3017 -1.26267 -8.49666
upperback -0.461447 -2.63604 1.30697
thorax -5.84343 -1.01331 6.58035
lowerneck -19.9066 -3.8584 -7.00596
upperneck 13.8128 -4.29743 5.60202
head 7.79829 -1.86954 2.46706
rclavicle -1.08934e-013 7.15625e-015
rhumerus -58.8051 10.2829 -95.2493
rradius 120.071
rwrist -30.2594
rhand -0.408105 22.829
rfingers 7.12502
rthumb 25.1994 -5.5273
lclavicle -1.08934e-013 7.15625e-015
lhumerus -35.0945 -16.2457 94.3032
lradius 123.05
lwrist 35.8384
lhand -12.3587 10.5979
lfingers 7.12502
lthumb 13.7113 40.1261
rfemur -37.67 -11.7629 13.9423
rtibia 76.206
rfoot -6.22975 -3.04768
rtoes -18.9363
lfemur 2.50992 -4.4761 -31.0832
ltibia 33.7613
lfoot -6.86635 -2.07938
ltoes -14.42
155
root 12.1365 17.3079 28.3001 9.51254 42.4658 7.77987
lowerback 9.74965 -1.21319 -8.30995
upperback -0.502957 -2.49418 1.42662
thorax -5.60175 -0.959509 6.55853
lowerneck -20.5887 -4.05756 -7.17687
upperneck 14.4792 -4.48417 5.53585
head 8.15165 -1.96366 2.44438
rclavicle 2.78299e-014 1.74931e-014
rhumerus -59.2943 10.1554 -95.3016
rradius 120.389
rwrist -30.5047
rhand -0.752348 22.1745
rfingers 7.12502
rthumb 24.8696 -6.22783
lclavicle 2.78299e-014 1.74931e-014
lhumerus -36.0805 -17.2899 94.3285
lradius 123.6
lwrist 35.6586
lhand -12.1059 10.3135
lfingers 7.12502
lthumb 13.9549 39.8251
rfemur -37.9513 -10.6776 14.6314
rtibia 72.4247
rfoot -6.68603 -3.51786
rtoes -19.954
lfemur 3.74449 -4.52761 -30.6926
ltibia 32.5465
lfoot -3.4901 -3.20353
ltoes -14.1384
156
root 12.4218 17.3685 28.5337 10.7326 42.278 9.19564
lowerback 9.79017 -1.40012 -7.88191
upperback -0.78419 -2.73564 0.968903
thorax -5.92323 -1.07388 5.86683
lowerneck -21.0906 -4.25128 -7.54322
upperneck 15.2398 -4.63516 5.55756
head 8.51451 -2.04685 2.48906
rclavicle 4.22417e-014 1.27222e-014
rhumerus -59.7581 10.1132 -95.2015
rradius 120.618
rwrist -30.4282
rhand -0.399535 21.4379
rfingers 7.12502
rthumb 25.2076 -6.91725
lclavicle 4.22417e-014 1.27222e-014
lhumerus -36.8922 -17.8031 94.5553
lradius 123.857
lwrist 35.4389
lhand -11.9411 9.75385
lfingers 7.12502
lthumb 14.1138 39.2545
rfemur -38.2972 -11.4194 13.4557
rtibia 68.7007
rfoot -8.16027 -2.86456
rtoes -15.9067
lfemur 4.93418 -5.03871 -32.1247
ltibia 31.2276
lfoot 0.757588 -3.94234
ltoes -14.3007
157
root 12.6463 17.47 28.9379 10.0093 41.7212 7.90444
lowerback 9.03193 -1.22643 -7.8284
upperback -1.00341 -2.42071 1.3803
thorax -5.76091 -0.916668 6.2072
lowerneck -20.3348 -4.23191 -7.32706
upperneck 15.2862 -4.68397 5.32167
head 8.39268 -2.09369 2.37431
rclavicle -6.80837e-014 1.19271e-014
rhumerus -60.6373 9.59267 -95.2225
rradius 120.95
rwrist -29.2977
rhand 0.298647 20.058
rfingers 7.12502
rthumb 25.8764 -8.20136
lclavicle -6.80837e-014 1.19271e-014
lhumerus -37.5299 -18.3535 94.9756
lradius 123.83
lwrist 35.1963
lhand -11.9541 9.41518
lfingers 7.12502
lthumb 14.1012 38.9167
rfemur -37.9346 -9.59625 15.0557
rtibia 64.3881
rfoot -8.79607 -3.82313
rtoes -16.7383
lfemur 6.23365 -5.11682 -30.8899
ltibia 29.8292
lfoot 5.36036 -4.28607
ltoes -13.3764
158
root 12.8901 17.5681 29.3029 9.64071 41.2346 7.02329
lowerback 8.49312 -1.34042 -7.46364
upperback -1.0354 -2.46926 1.7808
thorax -5.47685 -0.95937 6.40996
lowerneck -20.7048 -4.05444 -7.36176
upperneck 15.4413 -4.34975 5.03434
head 8.47986 -1.96378 2.32468
rclavicle -2.47487e-014 2.38542e-014
rhumerus -60.9127 9.87856 -95.0282
rradius 121.355
rwrist -27.8282
rhand 1.63323 20.6283
rfingers 7.12502
rthumb 27.1538 -7.43818
lclavicle -2.47487e-014 2.38542e-014
lhumerus -37.2013 -18.0654 95.3004
lradius 123.462
lwrist 34.7907
lhand -11.7803 9.69745
lfingers 7.12502
lthumb 14.2687 39.1872
rfemur -37.575 -8.19352 15.9589
rtibia 59.8161
rfoot -8.82071 -3.89373
rtoes -15.9268
lfemur 7.46495 -5.40272 -30.1267
ltibia 28.3058
lfoot 10.4987 -4.31425
ltoes -11.0636
159
root 13.1431 17.6506 29.6518 9.52888 40.8325 6.52647
lowerback 8.038 -1.40332 -7.07175
upperback -1.16964 -2.47396 1.95953
thorax -5.36673 -0.972756 6.36078
lowerneck -20.9643 -3.94792 -7.13125
upperneck 15.8352 -4.21044 4.76285
head 8.63772 -1.91067 2.21298
rclavicle -2.10712e-014 1.43125e-014
rhumerus -61.3127 9.84506 -94.9685
rradius 121.699
rwrist -27.0519
rhand 2.73772 21.0767
rfingers 7.12502
rthumb 28.2099 -6.82022
lclavicle -2.10712e-014 1.43125e-014
lhumerus -37.7354 -18.3039 95.5839
lradius 123.476
lwrist 34.6899
lhand -11.3366 10.1103
lfingers 7.12502
lthumb 14.6962 39.5694
rfemur -37.1808 -7.24141 16.4234
rtibia 55.1283
rfoot -8.67423 -3.41422
rtoes -13.0379
lfemur 8.67063 -5.88797 -29.7796
ltibia 26.6886
lfoot 15.2766 -4.49764
ltoes -10.4919
160
root 13.3875 17.7154 30.0122 10.0461 40.1854 6.75287
lowerback 7.44207 -1.30582 -7.45342
upperback -1.45598 -2.34523 1.98598
thorax -5.339 -0.889739 6.57458
lowerneck -21.0816 -4.01114 -7.27308
upperneck 16.423 -4.28974 4.88838
head 8.87112 -1.94305 2.26969
rclavicle 1.0635e-014 -2.22639e-014
rhumerus -61.8288 9.71935 -94.9903
rradius 121.938
rwrist -26.9328
rhand 2.8005 22.0006
rfingers 7.12502
rthumb 28.2699 -5.8864
lclavicle 1.0635e-014 -2.22639e-014
lhumerus -38.6623 -18.8561 95.9825
lradius 123.6
lwrist 34.9412
lhand -11.5657 10.2428
lfingers 7.12502
lthumb 14.4754 39.7179
rfemur -36.9795 -6.12256 16.3049
rtibia 50.3775
rfoot -8.01255 -2.84926
rtoes -13.561
lfemur 9.54122 -6.4921 -30.11
ltibia 25.3426
lfoot 19.1049 -5.07822
ltoes -10.5706
161
root 13.6802 17.7491 30.2502 11.6227 40.5276 9.08183
lowerback 8.04818 -1.62458 -7.39851
upperback -1.85067 -2.86853 1.22607
thorax -6.05688 -1.11703 5.83108
lowerneck -21.1094 -4.09366 -7.65783
upperneck 16.8692 -4.36558 5.20816
head 9.05221 -1.96905 2.43446
rclavicle -3.18055e-014 -2.70347e-014
rhumerus -62.2711 9.78158 -95.1953
rradius 122.119
rwrist -27.2079
rhand 2.41377 22.6532
rfingers 7.12502
rthumb 27.9002 -5.29434
lclavicle -3.18055e-014 -2.70347e-014
lhumerus -39.2777 -19.3986 96.2902
lradius 123.459
lwrist 35.2401
lhand -11.9506 10.4425
lfingers 7.12502
lthumb 14.1046 39.9438
rfemur -36.4154 -8.27398 14.3661
rtibia 45.8622
rfoot -7.48076 -0.411498
rtoes -14.3086
lfemur 10.768 -7.87263 -32.4891
ltibia 24.2373
lfoot 22.2073 -6.15408
ltoes -9.22836
162
root 13.8922 17.828 30.6837 10.6929 39.5311 7.05334
lowerback 6.95431 -1.34524 -7.27862
upperback -1.96433 -2.3638 1.91842
thorax -5.60662 -0.877876 6.39801
lowerneck -21.0704 -4.16965 -7.79093
upperneck 17.1568 -4.46632 5.32059
head 9.1583 -2.01371 2.48295
rclavicle 2.43511e-014 2.06736e-014
rhumerus -62.7012 9.91846 -95.4208
rradius 122.365
rwrist -27.6432
rhand 1.91138 22.3461
rfingers 7.12502
rthumb 27.4198 -5.67849
lclavicle 2.43511e-014 2.06736e-014
lhumerus -39.8622 -19.8354 96.6806
lradius 123.182
lwrist 35.4745
lhand -11.2149 10.8562
lfingers 7.12502
lthumb 14.8135 40.3067
rfemur -35.8904 -4.78878 16.0494
rtibia 41.1899
rfoot -6.6317 -1.86644
rtoes -14.802
lfemur 11.1923 -8.05998 -30.8543
ltibia 23.6185
lfoot 24.5841 -7.40425
ltoes -8.54812
